<svg xmlns="http://www.w3.org/2000/svg" width="57.852" height="41.494" viewBox="0 0 57.852 41.494">
  <g id="Group_205021" data-name="Group 205021" transform="translate(-1034 -5552.388)">
    <ellipse id="Ellipse_1630" data-name="Ellipse 1630" cx="28.926" cy="3.941" rx="28.926" ry="3.941" transform="translate(1034 5586)" fill="gray" opacity="0.08"/>
    <rect id="Rectangle_13331" data-name="Rectangle 13331" width="28.326" height="37.283" rx="3.968" transform="translate(1048.5 5552.888)" fill="none" stroke="#e02020" stroke-miterlimit="10" stroke-width="1"/>
    <path id="Path_29742" data-name="Path 29742" d="M231.679,347.688q4.78,0,9.559,0c.149,0,.34-.029.437.049.151.12.331.322.327.485a.8.8,0,0,1-.326.521.9.9,0,0,1-.508.071q-9.484,0-18.97,0h-.15c-.464-.008-.724-.223-.714-.587s.25-.542.709-.542Q226.86,347.686,231.679,347.688Z" transform="translate(831.665 5239.332)" fill="#e02020"/>
    <path id="Path_110379" data-name="Path 110379" d="M3.72,0V-14.5L1.272-12.7v-2.592l2.448-1.8H6.168V0ZM9.264-13.56a3.732,3.732,0,0,1,.3-1.536,3.594,3.594,0,0,1,.8-1.152,3.459,3.459,0,0,1,1.164-.732,3.836,3.836,0,0,1,1.38-.252,3.836,3.836,0,0,1,1.38.252,3.459,3.459,0,0,1,1.164.732,3.594,3.594,0,0,1,.8,1.152,3.732,3.732,0,0,1,.3,1.536V-3.528a3.732,3.732,0,0,1-.3,1.536,3.594,3.594,0,0,1-.8,1.152,3.459,3.459,0,0,1-1.164.732,3.836,3.836,0,0,1-1.38.252,3.836,3.836,0,0,1-1.38-.252A3.459,3.459,0,0,1,10.368-.84a3.594,3.594,0,0,1-.8-1.152,3.732,3.732,0,0,1-.3-1.536ZM11.712-3.528a1.21,1.21,0,0,0,.336.876,1.148,1.148,0,0,0,.864.348,1.148,1.148,0,0,0,.864-.348,1.21,1.21,0,0,0,.336-.876V-13.56a1.21,1.21,0,0,0-.336-.876,1.148,1.148,0,0,0-.864-.348,1.148,1.148,0,0,0-.864.348,1.21,1.21,0,0,0-.336.876Zm6-10.032a3.732,3.732,0,0,1,.3-1.536,3.594,3.594,0,0,1,.8-1.152,3.459,3.459,0,0,1,1.164-.732,3.836,3.836,0,0,1,1.38-.252,3.836,3.836,0,0,1,1.38.252,3.459,3.459,0,0,1,1.164.732,3.594,3.594,0,0,1,.8,1.152,3.732,3.732,0,0,1,.3,1.536V-3.528a3.732,3.732,0,0,1-.3,1.536A3.594,3.594,0,0,1,23.9-.84a3.459,3.459,0,0,1-1.164.732,3.836,3.836,0,0,1-1.38.252,3.836,3.836,0,0,1-1.38-.252A3.459,3.459,0,0,1,18.816-.84a3.594,3.594,0,0,1-.8-1.152,3.732,3.732,0,0,1-.3-1.536ZM20.16-3.528a1.21,1.21,0,0,0,.336.876,1.148,1.148,0,0,0,.864.348,1.148,1.148,0,0,0,.864-.348,1.21,1.21,0,0,0,.336-.876V-13.56a1.21,1.21,0,0,0-.336-.876,1.148,1.148,0,0,0-.864-.348,1.148,1.148,0,0,0-.864.348,1.21,1.21,0,0,0-.336.876Z" transform="translate(1049.728 5574)" fill="#e02020"/>
    <path id="Path_110380" data-name="Path 110380" d="M3.846-1.833v.457a1.646,1.646,0,0,1-.13.649,1.8,1.8,0,0,1-.358.545A1.727,1.727,0,0,1,2.823.2a1.565,1.565,0,0,1-.659.14A2.371,2.371,0,0,1,1.552.253,1.449,1.449,0,0,1,.991-.037a1.607,1.607,0,0,1-.41-.535A1.893,1.893,0,0,1,.42-1.408v-4.07a1.8,1.8,0,0,1,.125-.675A1.588,1.588,0,0,1,.9-6.692a1.641,1.641,0,0,1,.545-.358,1.831,1.831,0,0,1,.7-.13,1.606,1.606,0,0,1,1.215.488,1.734,1.734,0,0,1,.358.566,1.911,1.911,0,0,1,.13.711V-5H2.787v-.353a.857.857,0,0,0-.176-.54.572.572,0,0,0-.478-.228.538.538,0,0,0-.524.244,1.308,1.308,0,0,0-.13.618V-1.48a.979.979,0,0,0,.14.54.552.552,0,0,0,.5.218.769.769,0,0,0,.223-.036.666.666,0,0,0,.223-.119.633.633,0,0,0,.156-.228.925.925,0,0,0,.062-.363v-.363ZM4.708.274V-7.118H5.767V-.785h2.1V.274Zm5.98-2.585-.519-2.679h-.021L9.629-2.311ZM8.071.274,9.722-7.118H10.6L12.255.274H11.2l-.311-1.588H9.442L9.13.274Zm4.734,0V-7.118h1.059V.274Zm2.087,0V-7.118H15.91L17.27-3.2h.021l1.35-3.914h1.028V.274H18.609v-4.5h-.021L17.54-1.044H17.01L15.972-4.221h-.021v4.5Z" transform="translate(1052.58 5583.724)" fill="#263238"/>
  </g>
</svg>
